<?xml version="1.0" encoding="UTF-8" standalone="no"?>
<!-- Created with Inkscape (http://www.inkscape.org/) -->

<svg
   xmlns:dc="http://purl.org/dc/elements/1.1/"
   xmlns:cc="http://creativecommons.org/ns#"
   xmlns:rdf="http://www.w3.org/1999/02/22-rdf-syntax-ns#"
   xmlns:svg="http://www.w3.org/2000/svg"
   xmlns="http://www.w3.org/2000/svg"
   xmlns:sodipodi="http://sodipodi.sourceforge.net/DTD/sodipodi-0.dtd"
   xmlns:inkscape="http://www.inkscape.org/namespaces/inkscape"
   width="400"
   height="400"
   viewBox="0 0 105.83333 105.83334"
   version="1.1"
   id="svg8"
   inkscape:version="0.92.4 (5da689c313, 2019-01-14)"
   sodipodi:docname="WallClock.svg"
   inkscape:export-filename="C:\Users\saraylou_h\Desktop\WallClock.png"
   inkscape:export-xdpi="512"
   inkscape:export-ydpi="512">
  <defs
     id="defs2" />
  <sodipodi:namedview
     id="base"
     pagecolor="#ffffff"
     bordercolor="#666666"
     borderopacity="1.0"
     inkscape:pageopacity="0.0"
     inkscape:pageshadow="2"
     inkscape:zoom="1.4"
     inkscape:cx="86.089474"
     inkscape:cy="201.77928"
     inkscape:document-units="mm"
     inkscape:current-layer="layer1"
     showgrid="true"
     units="px"
     inkscape:pagecheckerboard="true"
     inkscape:snap-global="false"
     inkscape:window-width="1600"
     inkscape:window-height="838"
     inkscape:window-x="-8"
     inkscape:window-y="-8"
     inkscape:window-maximized="1">
    <inkscape:grid
       type="xygrid"
       id="grid817" />
  </sodipodi:namedview>
  <metadata
     id="metadata5">
    <rdf:RDF>
      <cc:Work
         rdf:about="">
        <dc:format>image/svg+xml</dc:format>
        <dc:type
           rdf:resource="http://purl.org/dc/dcmitype/StillImage" />
        <dc:title />
      </cc:Work>
    </rdf:RDF>
  </metadata>
  <g
     inkscape:label="Layer 1"
     inkscape:groupmode="layer"
     id="layer1"
     transform="translate(0,-191.16665)"
     style="display:inline">
    <circle
       style="opacity:1;fill:#ffffff;fill-opacity:1;stroke:#000000;stroke-width:2.22399998;stroke-linecap:round;stroke-linejoin:round;stroke-miterlimit:4;stroke-dasharray:none;stroke-opacity:1"
       id="path815"
       cx="53.841541"
       cy="241.37822"
       r="30.869631" />
    <ellipse
       style="opacity:1;fill:#000000;fill-opacity:1;stroke:none;stroke-width:1.95068455;stroke-linecap:round;stroke-linejoin:round;stroke-miterlimit:4;stroke-dasharray:none;stroke-opacity:1"
       id="path819"
       cx="53.841541"
       cy="241.37822"
       rx="2.3208621"
       ry="2.3210084" />
    <text
       xml:space="preserve"
       style="font-style:normal;font-weight:normal;font-size:3.52777767px;line-height:1.25;font-family:sans-serif;letter-spacing:0px;word-spacing:0px;fill:#000000;fill-opacity:1;stroke:none;stroke-width:0.26458332"
       x="64.123077"
       y="224.0103"
       id="text920"><tspan
         sodipodi:role="line"
         id="tspan918"
         x="64.123077"
         y="224.0103"
         style="font-style:normal;font-variant:normal;font-weight:normal;font-stretch:normal;font-size:8.46666622px;font-family:'B Homa';-inkscape-font-specification:'B Homa';stroke-width:0.26458332">1</tspan></text>
    <text
       xml:space="preserve"
       style="font-style:normal;font-weight:normal;font-size:10.58333302px;line-height:1.25;font-family:sans-serif;letter-spacing:0px;word-spacing:0px;fill:#000000;fill-opacity:1;stroke:none;stroke-width:0.26458332"
       x="71.196068"
       y="232.26894"
       id="text920-6"><tspan
         sodipodi:role="line"
         id="tspan918-9"
         x="71.196068"
         y="232.26894"
         style="font-style:normal;font-variant:normal;font-weight:normal;font-stretch:normal;font-size:8.46666622px;font-family:'B Homa';-inkscape-font-specification:'B Homa';stroke-width:0.26458332">2</tspan></text>
    <text
       xml:space="preserve"
       style="font-style:normal;font-weight:normal;font-size:10.58333302px;line-height:1.25;font-family:sans-serif;letter-spacing:0px;word-spacing:0px;fill:#000000;fill-opacity:1;stroke:none;stroke-width:0.26458332"
       x="70.696083"
       y="243.84045"
       id="text920-6-9"><tspan
         sodipodi:role="line"
         id="tspan918-9-7"
         x="70.696083"
         y="243.84045"
         style="font-style:normal;font-variant:normal;font-weight:normal;font-stretch:normal;font-size:11.28888893px;font-family:'B Homa';-inkscape-font-specification:'B Homa';stroke-width:0.26458332">3</tspan></text>
    <text
       xml:space="preserve"
       style="font-style:normal;font-weight:normal;font-size:10.58333302px;line-height:1.25;font-family:sans-serif;letter-spacing:0px;word-spacing:0px;fill:#000000;fill-opacity:1;stroke:none;stroke-width:0.26458332"
       x="70.248695"
       y="254.69223"
       id="text920-6-9-7"><tspan
         sodipodi:role="line"
         id="tspan918-9-7-7"
         x="70.248695"
         y="254.69223"
         style="font-style:normal;font-variant:normal;font-weight:normal;font-stretch:normal;font-size:8.46666622px;font-family:'B Homa';-inkscape-font-specification:'B Homa';stroke-width:0.26458332">4</tspan></text>
    <text
       xml:space="preserve"
       style="font-style:normal;font-weight:normal;font-size:10.58333302px;line-height:1.25;font-family:sans-serif;letter-spacing:0px;word-spacing:0px;fill:#000000;fill-opacity:1;stroke:none;stroke-width:0.26458332"
       x="62.594677"
       y="262.25177"
       id="text920-6-9-1"><tspan
         sodipodi:role="line"
         id="tspan918-9-7-6"
         x="62.594677"
         y="262.25177"
         style="font-style:normal;font-variant:normal;font-weight:normal;font-stretch:normal;font-size:8.46666622px;font-family:'B Homa';-inkscape-font-specification:'B Homa';stroke-width:0.26458332">5</tspan></text>
    <text
       xml:space="preserve"
       style="font-style:normal;font-weight:normal;font-size:10.58333302px;line-height:1.25;font-family:sans-serif;letter-spacing:0px;word-spacing:0px;fill:#000000;fill-opacity:1;stroke:none;stroke-width:0.26458332"
       x="51.032013"
       y="264.98163"
       id="text920-6-9-3"><tspan
         sodipodi:role="line"
         id="tspan918-9-7-78"
         x="51.032013"
         y="264.98163"
         style="font-style:normal;font-variant:normal;font-weight:normal;font-stretch:normal;font-size:11.28888893px;font-family:'B Homa';-inkscape-font-specification:'B Homa';stroke-width:0.26458332">6</tspan></text>
    <text
       xml:space="preserve"
       style="font-style:normal;font-weight:normal;font-size:10.58333302px;line-height:1.25;font-family:sans-serif;letter-spacing:0px;word-spacing:0px;fill:#000000;fill-opacity:1;stroke:none;stroke-width:0.26458332"
       x="40.010597"
       y="262.34625"
       id="text920-6-9-14"><tspan
         sodipodi:role="line"
         id="tspan918-9-7-9"
         x="40.010597"
         y="262.34625"
         style="font-style:normal;font-variant:normal;font-weight:normal;font-stretch:normal;font-size:8.46666622px;font-family:'B Homa';-inkscape-font-specification:'B Homa';stroke-width:0.26458332">7</tspan></text>
    <text
       xml:space="preserve"
       style="font-style:normal;font-weight:normal;font-size:10.58333302px;line-height:1.25;font-family:sans-serif;letter-spacing:0px;word-spacing:0px;fill:#000000;fill-opacity:1;stroke:none;stroke-width:0.26458332"
       x="32.490864"
       y="254.31345"
       id="text920-6-9-35"><tspan
         sodipodi:role="line"
         id="tspan918-9-7-1"
         x="32.490864"
         y="254.31345"
         style="font-style:normal;font-variant:normal;font-weight:normal;font-stretch:normal;font-size:8.46666622px;font-family:'B Homa';-inkscape-font-specification:'B Homa';stroke-width:0.26458332">8</tspan></text>
    <text
       xml:space="preserve"
       style="font-style:normal;font-weight:normal;font-size:10.58333302px;line-height:1.25;font-family:sans-serif;letter-spacing:0px;word-spacing:0px;fill:#000000;fill-opacity:1;stroke:none;stroke-width:0.26458332"
       x="28.780703"
       y="243.50854"
       id="text920-6-9-0"><tspan
         sodipodi:role="line"
         id="tspan918-9-7-8"
         x="28.780703"
         y="243.50854"
         style="font-style:normal;font-variant:normal;font-weight:normal;font-stretch:normal;font-size:11.28888893px;font-family:'B Homa';-inkscape-font-specification:'B Homa';stroke-width:0.26458332">9</tspan></text>
    <text
       xml:space="preserve"
       style="font-style:normal;font-weight:normal;font-size:10.58333302px;line-height:1.25;font-family:sans-serif;letter-spacing:0px;word-spacing:0px;fill:#000000;fill-opacity:1;stroke:none;stroke-width:0.26458332"
       x="32.890785"
       y="232.56996"
       id="text920-6-9-9"><tspan
         sodipodi:role="line"
         id="tspan918-9-7-2"
         x="32.890785"
         y="232.56996"
         style="font-style:normal;font-variant:normal;font-weight:normal;font-stretch:normal;font-size:8.46666622px;font-family:'B Homa';-inkscape-font-specification:'B Homa';stroke-width:0.26458332">10</tspan></text>
    <text
       xml:space="preserve"
       style="font-style:normal;font-weight:normal;font-size:10.58333302px;line-height:1.25;font-family:sans-serif;letter-spacing:0px;word-spacing:0px;fill:#000000;fill-opacity:1;stroke:none;stroke-width:0.26458332"
       x="41.030704"
       y="225.18407"
       id="text920-6-9-6"><tspan
         sodipodi:role="line"
         id="tspan918-9-7-4"
         x="41.030704"
         y="225.18407"
         style="font-style:normal;font-variant:normal;font-weight:normal;font-stretch:normal;font-size:8.46666622px;font-family:'B Homa';-inkscape-font-specification:'B Homa';stroke-width:0.26458332">11</tspan></text>
    <text
       xml:space="preserve"
       style="font-style:normal;font-weight:normal;font-size:10.58333302px;line-height:1.25;font-family:sans-serif;letter-spacing:0px;word-spacing:0px;fill:#000000;fill-opacity:1;stroke:none;stroke-width:0.26458332"
       x="49.713844"
       y="222.82922"
       id="text920-6-9-30"><tspan
         sodipodi:role="line"
         id="tspan918-9-7-20"
         x="49.713844"
         y="222.82922"
         style="font-style:normal;font-variant:normal;font-weight:normal;font-stretch:normal;font-size:11.28888893px;font-family:'B Homa';-inkscape-font-specification:'B Homa';stroke-width:0.26458332">12</tspan></text>
    <ellipse
       style="display:inline;opacity:1;fill:#000000;fill-opacity:1;stroke:none;stroke-width:1.95068455;stroke-linecap:round;stroke-linejoin:round;stroke-miterlimit:4;stroke-dasharray:none;stroke-opacity:1"
       id="path819-9"
       cx="92.742531"
       cy="248.62419"
       rx="2.3208621"
       ry="2.3210084" />
  </g>
  <g
     inkscape:groupmode="layer"
     id="layer2"
     inkscape:label="Layer 2"
     style="display:inline">
    <path
       style="fill:#000000;stroke-width:0.10506885"
       d="m 53.339177,81.259484 c -0.197403,-0.197403 -0.210133,-0.350225 -0.210133,-2.521644 0,-2.171433 0.01276,-2.324255 0.210133,-2.521656 0.262528,-0.26253 0.752436,-0.271515 0.981867,-0.01801 0.151017,0.16687 0.17389,0.504696 0.17389,2.568224 0,2.336277 -0.0036,2.378834 -0.233517,2.53965 -0.318518,0.223096 -0.670334,0.205329 -0.92224,-0.04662 z M 38.127576,77.208377 c -0.437196,-0.306213 -0.314514,-0.678965 0.836615,-2.542063 0.58857,-0.952607 1.148575,-1.828879 1.244444,-1.947286 0.363085,-0.448371 1.257763,-0.133506 1.257763,0.442646 0,0.213993 -2.249015,3.890039 -2.495507,4.07893 -0.232045,0.177835 -0.561393,0.165247 -0.843315,-0.03225 z m 30.480131,-0.07288 c -0.117285,-0.130032 -0.671969,-1.05638 -1.232645,-2.058571 -1.103523,-1.972486 -1.163588,-2.204625 -0.666082,-2.574433 0.547629,-0.407062 0.727052,-0.229748 1.934911,1.912082 0.598109,1.060607 1.113463,2.031913 1.145232,2.158457 0.03651,0.145266 -0.02472,0.334929 -0.165966,0.514469 -0.280308,0.356362 -0.718633,0.377075 -1.01545,0.04805 z M 27.005173,66.08309 c -0.305613,-0.216266 -0.401813,-0.652179 -0.208896,-0.946592 0.189902,-0.289833 3.861358,-2.474241 4.158587,-2.474241 0.567365,0 0.837558,0.831637 0.398657,1.227016 -0.343586,0.309511 -3.557219,2.212881 -3.863857,2.288485 -0.157334,0.03874 -0.348753,0.0013 -0.484491,-0.09467 z m 51.177179,-0.979253 c -1.981165,-1.125331 -1.990855,-1.132609 -2.022952,-1.517511 -0.03567,-0.427482 0.247515,-0.819002 0.592348,-0.819002 0.224521,0 4.006883,2.137554 4.132448,2.335403 0.228772,0.360448 -0.159305,1.131868 -0.569423,1.131868 -0.07795,0 -1.037527,-0.508844 -2.132421,-1.130758 z M 22.620748,50.196849 c 0.0013,-0.314537 0.368222,-0.645221 0.668741,-0.668194 h 2.200481 c 2.154815,0 2.203893,0.0048 2.364052,0.233517 0.207906,0.296816 0.207906,0.60204 0,0.898855 -0.160161,0.228678 -0.209237,0.233517 -2.364052,0.233517 h -2.200481 c -0.313143,4.5e-5 -0.670035,-0.383158 -0.668741,-0.697695 z m 57.159535,0.505556 c -0.230807,-0.255028 -0.221164,-0.783195 0.01824,-0.999862 0.166872,-0.151017 0.5047,-0.173888 2.568226,-0.173888 2.336277,0 2.378831,0.0036 2.53965,0.233517 0.207905,0.296816 0.207905,0.60204 0,0.898855 -0.160872,0.229701 -0.202761,0.233517 -2.5579,0.233517 -2.186161,0 -2.409469,-0.01674 -2.568226,-0.192139 z M 76.251819,37.484093 c -0.470447,-0.59806 -0.298665,-0.802586 1.64953,-1.963924 1.834391,-1.093517 2.27062,-1.331567 2.440083,-1.331567 0.212497,0 0.630851,0.513225 0.630851,0.773893 0,0.155702 -0.120646,0.359636 -0.304081,0.513976 -0.508926,0.428248 -3.740492,2.284469 -3.977094,2.284469 -0.121841,0 -0.319529,-0.124571 -0.439289,-0.276847 z M 28.910671,36.607598 c -1.040188,-0.575241 -1.976889,-1.150918 -2.081577,-1.279264 -0.343269,-0.420863 -0.0226,-1.070966 0.52681,-1.068223 0.33406,0.0012 3.865811,1.921819 4.15522,2.259117 0.101131,0.117867 0.183875,0.305778 0.183875,0.417577 0,0.2563 -0.45448,0.719446 -0.704445,0.71788 -0.103732,-6.54e-4 -1.039705,-0.471835 -2.079883,-1.047087 z m 37.772251,-8.828245 c -0.115622,-0.115621 -0.210143,-0.312301 -0.210143,-0.437171 0,-0.258643 1.808722,-3.694736 2.134258,-4.054523 0.281581,-0.311218 0.649174,-0.299384 0.980114,0.03155 0.195931,0.19593 0.251013,0.335508 0.204891,0.519263 -0.07842,0.312302 -1.911209,3.715611 -2.136471,3.967144 -0.220528,0.246243 -0.713453,0.232926 -0.972649,-0.02625 z M 40.059381,27.723193 C 39.740026,27.403838 37.89406,24.0121 37.89406,23.744675 c 0,-0.611873 0.768274,-0.911822 1.170722,-0.457046 0.255053,0.288232 2.191482,3.754514 2.191482,3.922856 0,0.06617 -0.09796,0.244797 -0.217771,0.397068 -0.249059,0.316631 -0.722238,0.372515 -0.979112,0.115622 z m 13.354046,-3.517904 -0.284383,-0.223696 v -2.303895 c 0,-2.16379 0.01276,-2.31666 0.210133,-2.514017 0.251906,-0.251909 0.603722,-0.269676 0.92224,-0.04662 0.229714,0.160888 0.233517,0.202655 0.233517,2.561315 0,2.55352 6.23e-4,2.550363 -0.530474,2.683665 -0.1875,0.04709 -0.351052,5.28e-4 -0.551033,-0.156785 z"
       id="path887-3"
       inkscape:connector-curvature="0"
       sodipodi:nodetypes="csccsccccccscccccccccccccscccscscsszcsccsczccsccscccsscscccccscccscscccccscscccccsccsccc" />
    <rect
       style="opacity:1;fill:#ffffff;fill-opacity:1;stroke:#000000;stroke-width:0.8;stroke-linecap:round;stroke-linejoin:round;stroke-miterlimit:4;stroke-dasharray:none;stroke-opacity:1"
       id="rect1042"
       width="2.037905"
       height="16.570711"
       x="88.915871"
       y="32.580524"
       rx="1.0189525"
       ry="1.195087" />
    <rect
       style="display:inline;opacity:1;fill:#ffffff;fill-opacity:1;stroke:#000000;stroke-width:0.4;stroke-linecap:round;stroke-linejoin:round;stroke-miterlimit:4;stroke-dasharray:none;stroke-opacity:1"
       id="rect1042-5"
       width="1.2533276"
       height="18.10751"
       x="94.190819"
       y="30.597973"
       rx="0.6266638"
       ry="0.70013821" />
  </g>
</svg>
